<!DOCTYPE svg PUBLIC "-//W3C//DTD SVG 20010904//EN" "http://www.w3.org/TR/2001/REC-SVG-20010904/DTD/svg10.dtd">
<svg version="1.0" xmlns="http://www.w3.org/2000/svg" width="332px" height="321px" viewBox="0 0 3320 3210" preserveAspectRatio="xMidYMid meet">
<g id="layer1" fill="#5d5d5d" stroke="none">
 <path d="M1465 2475 c-85 -19 -190 -60 -260 -101 -82 -49 -185 -134 -185 -153 0 -35 219 -221 261 -221 9 0 24 22 38 58 35 86 124 241 192 332 77 105 74 111 -46 85z"/>
 <path d="M1750 2480 c0 -5 29 -49 65 -97 38 -50 96 -151 138 -235 46 -95 78 -147 88 -147 39 -2 259 184 259 219 0 18 -96 99 -175 146 -79 48 -161 81 -258 104 -92 22 -117 24 -117 10z"/>
 <path d="M1542 2338 c-103 -145 -202 -337 -189 -370 7 -20 143 -58 213 -61 l59 -2 3 258 c2 219 0 257 -12 257 -8 0 -41 -37 -74 -82z"/>
 <path d="M1692 2163 l3 -258 61 2 c87 4 208 43 212 69 7 52 -226 444 -265 444 -11 0 -13 -44 -11 -257z"/>
 <path d="M943 2148 c-100 -112 -190 -333 -196 -483 l-2 -60 235 0 234 0 17 115 c9 63 22 135 29 160 11 42 11 45 -13 65 -14 11 -45 31 -68 45 -24 14 -80 60 -125 103 -44 42 -83 77 -86 77 -2 0 -14 -10 -25 -22z"/>
 <path d="M2280 2104 c-36 -36 -103 -91 -148 -121 -71 -46 -83 -58 -78 -76 9 -33 34 -174 43 -242 l8 -60 235 0 235 0 -3 60 c-4 94 -43 228 -96 333 -27 54 -112 172 -124 172 -4 0 -36 -30 -72 -66z"/>
 <path d="M1317 1893 c-12 -21 -39 -167 -40 -224 l-2 -64 175 0 175 0 0 120 0 120 -70 8 c-38 4 -100 16 -137 27 -71 21 -94 24 -101 13z"/>
 <path d="M1897 1879 c-31 -10 -90 -22 -130 -26 l-72 -8 0 -120 0 -120 173 -3 c152 -2 173 -1 179 14 6 17 -18 181 -37 247 -13 43 -24 45 -113 16z"/>
 <path d="M745 1539 c-19 -29 26 -227 76 -337 37 -83 107 -192 123 -192 7 0 28 16 47 36 47 50 133 115 201 154 32 17 61 36 64 41 3 5 0 35 -7 67 -6 31 -17 98 -23 147 l-11 90 -232 3 c-160 2 -234 -1 -238 -9z"/>
 <path d="M1277 1544 c-18 -19 13 -248 37 -272 11 -11 22 -11 67 3 30 8 90 18 134 22 120 9 116 4 113 136 l-3 112 -171 3 c-93 1 -173 -1 -177 -4z"/>
 <path d="M1694 1537 c-2 -7 -3 -62 -2 -122 l3 -108 85 -19 c47 -10 111 -28 144 -40 55 -20 60 -20 71 -4 16 21 45 173 48 246 l2 55 -173 3 c-137 2 -174 0 -178 -11z"/>
 <path d="M2106 1542 c-3 -5 -10 -51 -17 -103 -6 -51 -19 -125 -29 -164 -10 -38 -16 -73 -13 -78 2 -4 30 -24 61 -46 63 -42 144 -117 186 -171 l27 -35 48 52 c62 69 127 184 161 286 30 87 55 229 46 253 -4 12 -45 14 -235 14 -126 0 -232 -4 -235 -8z"/>
 <path d="M1445 1235 c-57 -13 -115 -31 -115 -37 0 -11 46 -120 72 -171 63 -126 189 -307 214 -307 12 0 14 43 12 263 l-3 262 -60 2 c-33 1 -87 -4 -120 -12z"/>
 <path d="M1696 1243 c-12 -12 -7 -523 5 -523 41 0 282 403 265 445 -9 24 -254 94 -270 78z"/>
 <path d="M1191 1132 c-71 -43 -201 -157 -201 -177 0 -27 151 -145 247 -194 88 -45 153 -68 236 -85 42 -9 79 -16 82 -16 14 0 -1 27 -70 129 -74 110 -146 242 -180 334 -11 30 -24 47 -35 47 -9 0 -44 -17 -79 -38z"/>
 <path d="M1956 998 c-36 -73 -95 -173 -131 -223 -36 -49 -65 -96 -65 -103 0 -15 35 -11 135 15 145 38 375 172 375 220 0 30 -206 223 -238 223 -5 0 -40 -60 -76 -132z"/>
 </g>
<g id="layer2" fill="#393939" stroke="none">
 <path d="M552 3063 l3 -148 65 0 65 0 3 148 3 147 -71 0 -71 0 3 -147z"/>
 <path d="M852 3063 l3 -148 65 0 65 0 3 148 3 147 -71 0 -71 0 3 -147z"/>
 <path d="M1152 3063 l3 -148 65 0 65 0 3 148 3 147 -71 0 -71 0 3 -147z"/>
 <path d="M1452 3063 l3 -148 65 0 65 0 3 148 3 147 -71 0 -71 0 3 -147z"/>
 <path d="M1752 3063 l3 -148 60 0 60 0 3 148 3 147 -66 0 -66 0 3 -147z"/>
 <path d="M2052 3063 l3 -148 65 0 65 0 3 148 3 147 -71 0 -71 0 3 -147z"/>
 <path d="M2352 3063 l3 -148 65 0 65 0 3 148 3 147 -71 0 -71 0 3 -147z"/>
 <path d="M2652 3063 l3 -148 65 0 65 0 3 148 3 147 -71 0 -71 0 3 -147z"/>
 <path d="M377 2863 c-4 -3 -7 -568 -7 -1255 0 -1180 1 -1249 18 -1256 9 -4 584 -7 1277 -7 l1260 0 3 1249 c1 915 -1 1252 -9 1262 -10 12 -223 14 -1274 14 -694 0 -1265 -3 -1268 -7z m2343 -1263 l0 -1060 -1070 0 -1070 0 0 1060 0 1060 1070 0 1070 0 0 -1060z"/>
 <path d="M635 2608 c-3 -7 -4 -463 -3 -1013 l3 -1000 1010 0 1010 0 3 999 c1 730 -1 1002 -9 1012 -16 20 -2007 21 -2014 2z m855 -218 c-64 -87 -156 -246 -186 -322 -11 -27 -24 -48 -29 -48 -21 0 -122 76 -184 137 l-64 64 34 30 c67 58 185 130 262 160 68 26 174 55 214 58 7 1 -14 -35 -47 -79z m378 60 c140 -34 269 -98 371 -185 l52 -45 -48 -51 c-49 -53 -178 -150 -197 -148 -6 0 -41 62 -78 137 -37 75 -97 176 -133 225 -36 48 -61 87 -57 87 4 0 44 -9 90 -20z m-258 -291 l0 -242 -52 7 c-29 4 -85 16 -125 27 l-71 21 30 72 c37 87 94 187 162 283 28 40 52 73 54 73 1 0 2 -109 2 -241z m179 132 c59 -86 161 -281 161 -307 0 -16 -104 -49 -183 -59 l-57 -7 0 236 c0 134 4 235 9 232 5 -3 36 -46 70 -95z m-744 -210 c60 -59 122 -107 190 -146 16 -9 16 -14 1 -70 -8 -33 -20 -102 -27 -152 l-12 -93 -219 0 -220 0 7 57 c11 92 43 202 79 280 36 74 111 193 124 193 3 0 38 -31 77 -69z m1352 12 c84 -120 138 -264 158 -420 l7 -53 -220 0 -221 0 -5 48 c-6 51 -33 204 -41 237 -4 16 9 29 66 65 39 24 101 75 137 112 37 37 70 67 73 68 3 0 24 -26 46 -57z m-853 -259 l66 -7 0 -103 0 -104 -161 0 -162 0 7 58 c3 31 13 91 22 133 l16 76 73 -23 c41 -13 103 -26 139 -30z m459 -31 c9 -43 20 -102 23 -130 l7 -53 -162 0 -161 0 0 104 0 103 68 8 c37 3 92 15 122 25 87 29 85 30 103 -57z m-798 -335 c3 -35 13 -98 21 -141 9 -43 14 -80 12 -81 -2 -1 -25 -15 -53 -31 -64 -36 -149 -102 -199 -154 l-40 -40 -34 51 c-73 108 -132 269 -148 401 l-6 57 220 0 220 0 7 -62z m403 -40 l-3 -103 -83 -7 c-45 -4 -108 -14 -138 -23 -31 -9 -58 -15 -59 -13 -6 6 -35 183 -35 216 l0 32 160 0 161 0 -3 -102z m417 50 c-10 -83 -36 -212 -44 -221 -5 -4 -30 1 -58 12 -27 10 -86 27 -131 37 l-82 17 0 104 0 103 161 0 161 0 -7 -52z m530 0 c-20 -159 -91 -338 -180 -451 l-46 -58 -77 79 c-42 43 -103 96 -135 117 -42 28 -56 43 -51 54 8 20 42 199 49 264 l6 47 221 0 220 0 -7 -52z m-945 -494 l0 -246 -24 29 c-67 80 -174 266 -215 372 l-19 51 51 14 c68 19 91 23 155 25 l52 1 0 -246z m260 205 c36 -12 69 -25 74 -29 19 -18 -181 -378 -224 -405 -6 -4 -10 80 -10 233 l0 239 48 -8 c26 -5 76 -19 112 -30z m-590 -51 c0 -30 112 -241 182 -344 l75 -111 -51 9 c-127 23 -272 90 -385 176 -108 84 -108 83 -33 152 63 57 175 130 199 130 7 0 13 -6 13 -12z m811 -64 c27 -19 76 -65 109 -101 69 -75 69 -73 -20 -133 -107 -73 -237 -127 -353 -149 -45 -8 -47 -7 -35 9 73 100 156 234 193 313 26 53 49 97 52 97 3 0 27 -16 54 -36z"/>
 <path d="M0 2680 l0 -71 148 3 147 3 3 53 c5 81 2 82 -159 82 l-139 0 0 -70z"/>
 <path d="M3004 2687 c-3 -8 -4 -39 -2 -68 l3 -54 153 -3 153 -3 -3 68 -3 68 -148 3 c-119 2 -148 0 -153 -11z"/>
 <path d="M0 2380 l0 -71 148 3 147 3 3 53 c5 81 2 82 -159 82 l-139 0 0 -70z"/>
 <path d="M3004 2387 c-3 -8 -4 -39 -2 -68 l3 -54 153 -3 153 -3 -3 68 -3 68 -148 3 c-119 2 -148 0 -153 -11z"/>
 <path d="M0 2075 l0 -66 148 3 147 3 0 60 0 60 -147 3 -148 3 0 -66z"/>
 <path d="M3004 2087 c-3 -8 -4 -39 -2 -68 l3 -54 153 -3 153 -3 -3 68 -3 68 -148 3 c-119 2 -148 0 -153 -11z"/>
 <path d="M0 1775 l0 -66 148 3 147 3 0 60 0 60 -147 3 -148 3 0 -66z"/>
 <path d="M3004 1787 c-3 -8 -4 -39 -2 -68 l3 -54 153 -3 153 -3 -3 68 -3 68 -148 3 c-119 2 -148 0 -153 -11z"/>
 <path d="M0 1480 l0 -71 148 3 147 3 3 53 c5 81 2 82 -159 82 l-139 0 0 -70z"/>
 <path d="M3004 1487 c-3 -8 -4 -39 -2 -68 l3 -54 153 -3 153 -3 -3 68 -3 68 -148 3 c-119 2 -148 0 -153 -11z"/>
 <path d="M0 1180 l0 -71 148 3 147 3 3 53 c5 81 2 82 -159 82 l-139 0 0 -70z"/>
 <path d="M3004 1187 c-3 -8 -4 -39 -2 -68 l3 -54 153 -3 153 -3 -3 68 -3 68 -148 3 c-119 2 -148 0 -153 -11z"/>
 <path d="M0 875 l0 -66 148 3 147 3 0 60 0 60 -147 3 -148 3 0 -66z"/>
 <path d="M3004 887 c-3 -8 -4 -39 -2 -68 l3 -54 153 -3 153 -3 -3 68 -3 68 -148 3 c-119 2 -148 0 -153 -11z"/>
 <path d="M0 580 l0 -71 148 3 147 3 3 53 c5 81 2 82 -159 82 l-139 0 0 -70z"/>
 <path d="M3004 587 c-3 -8 -4 -39 -2 -68 l3 -54 153 -3 153 -3 -3 68 -3 68 -148 3 c-119 2 -148 0 -153 -11z"/>
 <path d="M527 303 c-4 -3 -7 -73 -7 -155 l0 -148 70 0 70 0 0 143 c0 98 -4 147 -12 155 -13 13 -110 17 -121 5z"/>
 <path d="M827 303 c-4 -3 -7 -73 -7 -155 l0 -148 70 0 70 0 0 143 c0 98 -4 147 -12 155 -13 13 -110 17 -121 5z"/>
 <path d="M1127 303 c-4 -3 -7 -73 -7 -155 l0 -148 70 0 70 0 0 143 c0 98 -4 147 -12 155 -13 13 -110 17 -121 5z"/>
 <path d="M1427 303 c-4 -3 -7 -73 -7 -155 l0 -148 70 0 70 0 0 143 c0 98 -4 147 -12 155 -13 13 -110 17 -121 5z"/>
 <path d="M1727 303 c-4 -3 -7 -73 -7 -155 l0 -148 70 0 70 0 0 143 c0 98 -4 147 -12 155 -13 13 -110 17 -121 5z"/>
 <path d="M2027 303 c-4 -3 -7 -73 -7 -155 l0 -148 70 0 70 0 0 143 c0 98 -4 147 -12 155 -13 13 -110 17 -121 5z"/>
 <path d="M2327 303 c-4 -3 -7 -73 -7 -155 l0 -148 70 0 70 0 0 143 c0 98 -4 147 -12 155 -13 13 -110 17 -121 5z"/>
 <path d="M2627 303 c-4 -3 -7 -73 -7 -155 l0 -148 70 0 70 0 0 143 c0 98 -4 147 -12 155 -13 13 -110 17 -121 5z"/>
 </g>

</svg>